<svg viewBox="0 0 24 24" version="1.1" xmlns="http://www.w3.org/2000/svg">
    <path d="M8,3L8,21C8,22.104 7.104,23 6,23L3,23C1.896,23 1,22.104 1,21L1,3C1,1.896 1.896,1 3,1L6,1C7.104,1 8,1.896 8,3Z"
          style="fill:rgb(221,221,221);"/>
    <path d="M23,3L23,11C23,12.104 22.104,13 21,13L12,13C10.896,13 10,12.104 10,11L10,3C10,1.896 10.896,1 12,1L21,1C22.104,1 23,1.896 23,3ZM22,3C22,2.448 21.552,2 21,2L12,2C11.448,2 11,2.448 11,3L11,11C11,11.552 11.448,12 12,12L21,12C21.552,12 22,11.552 22,11L22,3Z"
          style="fill:rgb(221,221,221);"/>
    <path d="M23,17L23,21C23,22.104 22.104,23 21,23L12,23C10.896,23 10,22.104 10,21L10,17C10,15.896 10.896,15 12,15L21,15C22.104,15 23,15.896 23,17Z"
          style="fill:rgb(221,221,221);"/>
</svg>
